<!-- Generated by IcoMoon.io -->
<svg version="1.1" xmlns="http://www.w3.org/2000/svg" width="32" height="32" viewBox="0 0 32 32">
<title>burger-menu</title>
<path d="M4 12.334c-0.552 0-1 0.448-1 1v0c0 0.552 0.448 1 1 1v0h24c0.552 0 1-0.448 1-1v0c0-0.552-0.448-1-1-1v0z"></path>
<path d="M4 7c-0.552 0-1 0.448-1 1v0c0 0.552 0.448 1 1 1v0h24c0.552 0 1-0.448 1-1v0c0-0.552-0.448-1-1-1v0z"></path>
<path d="M4 17.666c-0.552 0-1 0.448-1 1v0c0 0.552 0.448 1 1 1v0h24c0.552 0 1-0.448 1-1v0c0-0.552-0.448-1-1-1v0z"></path>
<path d="M4 23c-0.552 0-1 0.448-1 1v0c0 0.552 0.448 1 1 1v0h24c0.552 0 1-0.448 1-1v0c0-0.552-0.448-1-1-1v0z"></path>
</svg>
