<!-- Generated by IcoMoon.io -->
<svg version="1.1" xmlns="http://www.w3.org/2000/svg" width="32" height="32" viewBox="0 0 32 32">
<title>moon</title>
<path d="M27.656 17.393c-0.904 0.24-1.834 0.361-2.769 0.361-2.847 0-5.52-1.107-7.528-3.115-1.319-1.326-2.267-2.975-2.749-4.782s-0.484-3.709-0.002-5.516c0.060-0.226 0.060-0.464-0.001-0.689s-0.18-0.432-0.345-0.597c-0.165-0.165-0.371-0.284-0.597-0.344s-0.464-0.060-0.69 0c-2.262 0.603-4.327 1.79-5.985 3.443-5.197 5.197-5.197 13.657 0 18.857 1.235 1.242 2.705 2.227 4.323 2.898s3.354 1.014 5.106 1.009c1.752 0.005 3.487-0.338 5.105-1.008s3.087-1.655 4.322-2.897c1.654-1.659 2.841-3.724 3.444-5.988 0.060-0.226 0.059-0.463-0.002-0.689s-0.18-0.431-0.345-0.596-0.371-0.284-0.596-0.345c-0.226-0.061-0.463-0.061-0.689-0.001zM23.96 23.128c-0.988 0.993-2.163 1.781-3.458 2.317s-2.682 0.81-4.084 0.807c-1.402 0.003-2.79-0.271-4.085-0.807s-2.471-1.324-3.459-2.318c-4.157-4.159-4.157-10.927 0-15.085 0.803-0.802 1.731-1.47 2.747-1.977-0.149 1.919 0.119 3.847 0.784 5.653s1.712 3.447 3.070 4.811c1.361 1.362 3.002 2.412 4.808 3.077s3.736 0.931 5.656 0.777c-0.51 1.014-1.178 1.941-1.979 2.745z"></path>
</svg>
