<!-- Generated by IcoMoon.io -->
<svg version="1.1" xmlns="http://www.w3.org/2000/svg" width="32" height="32" viewBox="0 0 32 32">
<title>sun</title>
<path d="M9.324 16c0 3.681 2.995 6.676 6.676 6.676s6.676-2.995 6.676-6.676c0-3.681-2.995-6.676-6.676-6.676s-6.676 2.995-6.676 6.676zM16 11.991c2.211 0 4.009 1.799 4.009 4.009s-1.799 4.009-4.009 4.009c-2.211 0-4.009-1.799-4.009-4.009s1.799-4.009 4.009-4.009zM14.664 25.333h2.667v4h-2.667v-4zM14.664 2.667h2.667v4h-2.667v-4zM2.664 14.667h4v2.667h-4v-2.667zM25.331 14.667h4v2.667h-4v-2.667zM5.625 24.484l2.827-2.829 1.887 1.885-2.827 2.829-1.887-1.885zM21.653 8.459l2.829-2.829 1.885 1.885-2.829 2.829-1.885-1.885zM8.456 10.345l-2.829-2.829 1.887-1.885 2.827 2.829-1.884 1.885zM26.368 24.485l-1.885 1.885-2.829-2.829 1.885-1.885 2.829 2.829z"></path>
</svg>
