<svg width="80" height="94" viewBox="0 0 80 94" fill="none" xmlns="http://www.w3.org/2000/svg">
<g clip-path="url(#clip0_198_1405)">
<rect width="80" height="80" rx="40" fill="#F3F3F3" fill-opacity="0.952941"/>
<circle cx="39.9677" cy="42.5869" r="11.5869" fill="#939FC0"/>
<path d="M68 81.9261C68 78.1834 67.2628 74.4774 65.8306 71.0196C64.3983 67.5618 62.299 64.42 59.6525 61.7736C57.0061 59.1271 53.8643 57.0278 50.4065 55.5955C46.9487 54.1633 43.2427 53.4261 39.5 53.4261C35.7573 53.4261 32.0513 54.1633 28.5935 55.5955C25.1357 57.0278 21.9939 59.1271 19.3475 61.7736C16.701 64.42 14.6017 67.5618 13.1694 71.0196C11.7372 74.4774 11 78.1834 11 81.9261L39.5 81.9261H68Z" fill="#939FC0"/>
</g>
<circle cx="40" cy="80" r="14" fill="#546081"/>
<path d="M40.2188 75.625V84.8125" stroke="#F3F3F3" stroke-width="2" stroke-linecap="round" stroke-linejoin="round"/>
<path d="M35.625 80.2188H44.8125" stroke="#F3F3F3" stroke-width="2" stroke-linecap="round" stroke-linejoin="round"/>
<defs>
<clipPath id="clip0_198_1405">
<rect width="80" height="80" rx="40" fill="white"/>
</clipPath>
</defs>
</svg>
