<!-- Generated by IcoMoon.io -->
<svg version="1.1" xmlns="http://www.w3.org/2000/svg" width="32" height="32" viewBox="0 0 32 32">
<title>edit-black</title>
<path d="M25.335 1.42c-1.348 0-2.698 0.511-3.719 1.531l-16.853 16.853c-0.672 0.672-1.087 1.067-1.455 1.625-0.301 0.456-0.537 0.95-0.705 1.469 0 0.001 0 0.001 0 0.002s0 0.002 0 0.002v-0c-0.206 0.636-0.257 1.207-0.362 2.152l-0.384 3.451c-0.006 0.048-0.009 0.104-0.009 0.161 0 0.821 0.665 1.486 1.486 1.486 0.057 0 0.113-0.003 0.168-0.009l-0.007 0.001 3.451-0.384c0.945-0.105 1.516-0.156 2.152-0.362 0.52-0.168 1.018-0.405 1.473-0.705 0.558-0.368 0.953-0.783 1.625-1.455l16.853-16.853c2.040-2.041 2.040-5.393 0-7.433-1.020-1.020-2.366-1.531-3.714-1.531zM25.335 4.371c0.582 0 1.163 0.226 1.616 0.679 0.905 0.905 0.905 2.327 0 3.232l-16.853 16.853c-0.672 0.672-0.948 0.933-1.165 1.076-0.232 0.153-0.486 0.276-0.75 0.362-0.248 0.080-0.62 0.132-1.563 0.237l-1.607 0.179 0.179-1.607c0.105-0.945 0.157-1.315 0.237-1.563 0.086-0.265 0.209-0.518 0.362-0.75 0.143-0.217 0.403-0.493 1.076-1.165l16.853-16.853c0.453-0.453 1.034-0.679 1.616-0.679z"></path>
</svg>
